<svg width="104" height="16" viewBox="0 0 104 16" fill="none" xmlns="http://www.w3.org/2000/svg">
<path d="M6.53951 2.65667H8.00018V0.112667C7.74818 0.078 6.88151 0 5.87218 0C3.76618 0 2.32351 1.32467 2.32351 3.75933V6H-0.000488281V8.844H2.32351V16H5.17284V8.84467H7.40284L7.75684 6.00067H5.17218V4.04133C5.17285 3.21933 5.39418 2.65667 6.53951 2.65667Z" fill="#B2B2B4"/>
<g clip-path="url(#clip0_802_2567)">
<path d="M38.4809 4.00704C38.3488 4.12082 38.2117 4.22911 38.0701 4.33157L37.8516 4.48957L37.8635 4.75893C37.8695 4.892 37.8724 5.02835 37.8724 5.16173C37.8724 9.28329 34.7364 14.0005 29.0337 14.0005H29.0334C27.9985 14.001 26.9768 13.8193 26.0137 13.4686C27.1599 13.2685 28.2457 12.7877 29.1707 12.0612L30.2718 11.1962L28.8719 11.1681C28.2911 11.1564 27.7286 10.9637 27.2626 10.6169C27.0093 10.4284 26.7914 10.1994 26.6167 9.94083C26.884 9.9266 27.1499 9.88385 27.4097 9.81275L27.3764 8.84031C26.7464 8.71349 26.1797 8.37241 25.7727 7.87503C25.5247 7.57194 25.3454 7.22221 25.2432 6.8498C25.5268 6.92683 25.8195 6.97083 26.1153 6.98023L27.8605 7.03563L26.4092 6.06488C25.8206 5.67117 25.404 5.06812 25.244 4.37828C25.1398 3.92868 25.1496 3.46421 25.2675 3.02565C26.0304 3.81876 26.9225 4.47948 27.9076 4.97857C29.1354 5.60064 30.4802 5.95774 31.8549 6.02673L32.5163 6.05992L32.3671 5.41471C32.2291 4.81798 32.2915 4.19242 32.5447 3.63474C32.798 3.07706 33.2278 2.61832 33.7679 2.32945C34.308 2.04058 34.9282 1.93766 35.5326 2.03662C36.137 2.13558 36.692 2.43089 37.1118 2.8769L37.3014 3.07842L37.5729 3.02473C37.7926 2.98126 38.0098 2.92749 38.2239 2.86367C38.1101 2.95956 37.9882 3.04675 37.8591 3.12412L38.1739 4.04964C38.2766 4.03771 38.379 4.0235 38.4809 4.00704ZM38.4809 4.00704C38.6459 3.86492 38.8031 3.71425 38.952 3.55567C38.7741 3.7147 38.5805 3.85759 38.3732 3.98184L38.1162 3.55298L38.0585 3.05632C38.3438 3.02317 38.6259 2.96954 38.9027 2.896M38.8582 2.09857C38.4155 2.29378 37.952 2.44005 37.4759 2.53423L38.8582 2.09857Z" fill="#B2B2B4" stroke="#B2B2B4"/>
</g>
<g clip-path="url(#clip1_802_2567)">
<path fill-rule="evenodd" clip-rule="evenodd" d="M67.2989 0.0502569C65.8269 -0.0184086 62.181 -0.0150753 60.7076 0.0502569C59.413 0.110923 58.271 0.423584 57.3504 1.34423C55.9735 2.72108 55.9862 4.52606 56.0041 7.06919C56.0062 7.36803 56.0084 7.67706 56.0084 7.99679C56.0084 8.29603 56.0068 8.58522 56.0052 8.86488C55.9907 11.4935 55.9808 13.2797 57.3504 14.6493C58.7297 16.0281 60.5546 16.0145 63.069 15.9959C63.3703 15.9936 63.6814 15.9913 64.0029 15.9913H64.0464C67.0956 15.9913 68.1547 15.9913 69.2395 15.5713C70.7215 14.996 71.8401 13.6714 71.9494 11.2921C72.0188 9.81942 72.0148 6.17415 71.9494 4.70084C71.8175 1.89223 70.3101 0.188921 67.2989 0.0502569ZM64.0029 3.89153C61.7343 3.89153 59.8977 5.73017 59.8977 7.99679C59.8977 10.2654 61.7363 12.1021 64.0029 12.1021C66.2716 12.1021 68.1082 10.2634 68.1082 7.99679C68.1082 5.72817 66.2696 3.89153 64.0029 3.89153ZM64.0029 10.6614C62.5303 10.6614 61.3383 9.46877 61.3383 7.99679C61.3383 6.52482 62.531 5.33217 64.0029 5.33217C65.4749 5.33217 66.6675 6.52482 66.6675 7.99679C66.6682 9.46877 65.4756 10.6614 64.0029 10.6614ZM69.2302 3.72953C69.2302 4.25935 68.8007 4.68885 68.2709 4.68885C67.741 4.68885 67.3115 4.25935 67.3115 3.72953C67.3115 3.19972 67.741 2.77021 68.2709 2.77021C68.8007 2.77021 69.2302 3.19972 69.2302 3.72953Z" fill="#B2B2B4"/>
</g>
<g clip-path="url(#clip2_802_2567)">
<path fill-rule="evenodd" clip-rule="evenodd" d="M88 1.92133C88 0.860667 88.8607 0 89.9213 0C90.9813 0 91.842 0.860667 91.8427 1.92133C91.8427 2.982 90.982 3.86067 89.9213 3.86067C88.8607 3.86067 88 2.982 88 1.92133ZM103.996 16V15.9993H104V10.1313C104 7.26065 103.382 5.04932 100.026 5.04932C98.4127 5.04932 97.33 5.93465 96.888 6.77398H96.8413V5.31732H93.6593V15.9993H96.9727V10.71C96.9727 9.31732 97.2367 7.97065 98.9613 7.97065C100.661 7.97065 100.686 9.55998 100.686 10.7993V16H103.996ZM88.264 5.31799H91.5813V16H88.264V5.31799Z" fill="#B2B2B4"/>
</g>
<defs>
<clipPath id="clip0_802_2567">
<rect width="16" height="16" fill="white" transform="translate(24.0002)"/>
</clipPath>
<clipPath id="clip1_802_2567">
<rect width="15.9997" height="16" fill="white" transform="translate(56.0002)"/>
</clipPath>
<clipPath id="clip2_802_2567">
<rect width="16" height="16" fill="white" transform="translate(88)"/>
</clipPath>
</defs>
</svg>
